# xmcd
#
# Track frame offsets:
#	182
#	7159
#	20193
#	34720
#	46787
#	58832
#	73294
#	87182
#	99531
#	112893
#	128063
#	141520
#	154173
#	169263
#	183375
#	195484
#	208022
#	222026
#	236067
#	250164
#	263456
#	278076
#	293400
#
# Disc length: 4094 seconds
# Revision: 2
# Processed by: cddbd v1.5.2PL0 Copyright (c) Steve Scherf et al.
# Submitted via: dBpowerAMP V12.0
#
DISCID=4f0ffc17
DTITLE=John Lee Hooker - Vol.4: Detroit 1950-1951
DYEAR=2003
DGENRE=Blues
TTITLE0=Tease Me Baby
TTITLE1=Looking for Romance
TTITLE2=Streets Is Filled with Women
TTITLE3=Reach My Goal
TTITLE4=Me and a Woman
TTITLE5=Whistle Done Blown
TTITLE6=Louise
TTITLE7=High Priced Woman
TTITLE8=Union Station Blues
TTITLE9=Just Me and My Telephone
TTITLE10=Ground Hog Blues
TTITLE11=Leave My Wife Alone
TTITLE12=Ramblin' by Myself
TTITLE13=Dreamin' Blues
TTITLE14=How Can You Do It
TTITLE15=I Work for Her Everday
TTITLE16=Johnny Lee's Mood
TTITLE17=Two Voice Original Mood
TTITLE18=I'm in the Mood
TTITLE19=I'm in the Mood
TTITLE20=Anybody Seen My Baby
TTITLE21=I Did Everything
TTITLE22=Turn Over a New Leaf
EXTD=
EXTT0=
EXTT1=
EXTT2=
EXTT3=
EXTT4=
EXTT5=
EXTT6=
EXTT7=
EXTT8=
EXTT9=
EXTT10=
EXTT11=
EXTT12=
EXTT13=
EXTT14=
EXTT15=
EXTT16=
EXTT17=
EXTT18=
EXTT19=
EXTT20=
EXTT21=
EXTT22=
PLAYORDER=
